# xmcd
#
# Track frame offsets:
#	168
#	10197
#	23960
#	39467
#	56017
#	71864
#	88428
#	105776
#	123513
#	140763
#	152018
#	164885
#	179862
#	200794
#	234888
#	244264
#	258271
#	288106
#	300134
#	332775
#	337627
#
# Disc length: 4675 seconds
#
# Revision: 8
# Processed by: cddbd v1.5.2PL0 Copyright (c) Steve Scherf et al.
# Submitted via: audiograbber 1.83.01
#
DISCID=2d124115
DTITLE=Neil Diamond - Hot August Night III [CD 1)
DYEAR=2018
DGENRE=Singer/Songwriter
TTITLE0=Overture [live]
TTITLE1=Soolaimon [live]
TTITLE2=Beautiful Noise [live]
TTITLE3=Forever In Blue Jeans [live]
TTITLE4=Love On The Rocks [live]
TTITLE5=Hello Again [live]
TTITLE6=September Morn [live]
TTITLE7=Play Me [live]
TTITLE8=Shilo [live]
TTITLE9=Red, Red Wine [live]
TTITLE10=You Got To Me [live]
TTITLE11=Girl, You'll Be A Woman Soon [live]
TTITLE12=Thank The Lord For The Night Time [live]
TTITLE13=Cherry, Cherry [live]
TTITLE14=Kentucky Woman [live]
TTITLE15=Solitary Man [live]
TTITLE16=Glory Road [live]
TTITLE17=Chelsea Morning [live]
TTITLE18=I'm A Believer [live]
TTITLE19=Happy Birthday Rose [live]
TTITLE20=Cracklin' Rosie [live]
EXTD=
EXTT0=
EXTT1=
EXTT2=
EXTT3=
EXTT4=
EXTT5=
EXTT6=
EXTT7=
EXTT8=
EXTT9=
EXTT10=
EXTT11=
EXTT12=
EXTT13=
EXTT14=
EXTT15=
EXTT16=
EXTT17=
EXTT18=
EXTT19=
EXTT20=
PLAYORDER=
